<mxfile host="app.diagrams.net" agent="Mozilla/5.0 (Windows NT 10.0; Win64; x64) AppleWebKit/537.36 (KHTML, like Gecko) Chrome/130.0.0.0 Safari/537.36" version="24.8.6">
  <diagram name="Page-1" id="gOBQeKgMoBBLnyrDWfxW">
    <mxGraphModel dx="1941" dy="610" grid="1" gridSize="10" guides="1" tooltips="1" connect="1" arrows="1" fold="1" page="1" pageScale="1" pageWidth="827" pageHeight="1169" math="0" shadow="0">
      <root>
        <mxCell id="0" />
        <mxCell id="1" parent="0" />
        <mxCell id="qcnHzoWF8FAFBK01wwpn-18" style="edgeStyle=orthogonalEdgeStyle;rounded=0;orthogonalLoop=1;jettySize=auto;html=1;entryX=0.5;entryY=0;entryDx=0;entryDy=0;" edge="1" parent="1" source="ZpOtdVFW0O2eYbw3lWE1-1">
          <mxGeometry relative="1" as="geometry">
            <mxPoint x="414" y="210" as="targetPoint" />
          </mxGeometry>
        </mxCell>
        <mxCell id="ZpOtdVFW0O2eYbw3lWE1-1" value="&lt;font size=&quot;3&quot;&gt;Tabletop created&amp;nbsp;&lt;/font&gt;" style="rounded=0;whiteSpace=wrap;html=1;" parent="1" vertex="1">
          <mxGeometry x="354" y="110" width="120" height="60" as="geometry" />
        </mxCell>
        <mxCell id="ZpOtdVFW0O2eYbw3lWE1-3" style="edgeStyle=orthogonalEdgeStyle;rounded=0;orthogonalLoop=1;jettySize=auto;html=1;" parent="1" source="ZpOtdVFW0O2eYbw3lWE1-2" target="ZpOtdVFW0O2eYbw3lWE1-1" edge="1">
          <mxGeometry relative="1" as="geometry" />
        </mxCell>
        <mxCell id="qcnHzoWF8FAFBK01wwpn-6" style="edgeStyle=orthogonalEdgeStyle;rounded=0;orthogonalLoop=1;jettySize=auto;html=1;entryX=1;entryY=0.5;entryDx=0;entryDy=0;" edge="1" parent="1" source="ZpOtdVFW0O2eYbw3lWE1-2" target="qcnHzoWF8FAFBK01wwpn-3">
          <mxGeometry relative="1" as="geometry" />
        </mxCell>
        <mxCell id="ZpOtdVFW0O2eYbw3lWE1-2" value="&lt;font size=&quot;3&quot;&gt;Program Run&lt;/font&gt;" style="rounded=1;whiteSpace=wrap;html=1;arcSize=50;" parent="1" vertex="1">
          <mxGeometry x="354" y="20" width="120" height="60" as="geometry" />
        </mxCell>
        <mxCell id="qcnHzoWF8FAFBK01wwpn-8" style="edgeStyle=orthogonalEdgeStyle;rounded=0;orthogonalLoop=1;jettySize=auto;html=1;entryX=1;entryY=0.5;entryDx=0;entryDy=0;" edge="1" parent="1" source="qcnHzoWF8FAFBK01wwpn-3" target="qcnHzoWF8FAFBK01wwpn-7">
          <mxGeometry relative="1" as="geometry" />
        </mxCell>
        <mxCell id="qcnHzoWF8FAFBK01wwpn-10" style="edgeStyle=orthogonalEdgeStyle;rounded=0;orthogonalLoop=1;jettySize=auto;html=1;entryX=0.5;entryY=0;entryDx=0;entryDy=0;" edge="1" parent="1" source="qcnHzoWF8FAFBK01wwpn-3" target="qcnHzoWF8FAFBK01wwpn-9">
          <mxGeometry relative="1" as="geometry" />
        </mxCell>
        <mxCell id="qcnHzoWF8FAFBK01wwpn-3" value="Hotbar created" style="rounded=0;whiteSpace=wrap;html=1;" vertex="1" parent="1">
          <mxGeometry x="150" y="20" width="120" height="60" as="geometry" />
        </mxCell>
        <mxCell id="qcnHzoWF8FAFBK01wwpn-14" style="edgeStyle=orthogonalEdgeStyle;rounded=0;orthogonalLoop=1;jettySize=auto;html=1;entryX=0.5;entryY=0;entryDx=0;entryDy=0;" edge="1" parent="1" source="qcnHzoWF8FAFBK01wwpn-7">
          <mxGeometry relative="1" as="geometry">
            <mxPoint x="30" y="120" as="targetPoint" />
          </mxGeometry>
        </mxCell>
        <mxCell id="qcnHzoWF8FAFBK01wwpn-7" value="add model button created&amp;nbsp;" style="rounded=0;whiteSpace=wrap;html=1;" vertex="1" parent="1">
          <mxGeometry x="-30" y="20" width="120" height="60" as="geometry" />
        </mxCell>
        <mxCell id="qcnHzoWF8FAFBK01wwpn-9" value="pre-existing models displayed in the hotbar" style="rounded=0;whiteSpace=wrap;html=1;" vertex="1" parent="1">
          <mxGeometry x="150" y="110" width="120" height="60" as="geometry" />
        </mxCell>
        <mxCell id="qcnHzoWF8FAFBK01wwpn-12" style="edgeStyle=orthogonalEdgeStyle;rounded=0;orthogonalLoop=1;jettySize=auto;html=1;entryX=0.5;entryY=0;entryDx=0;entryDy=0;" edge="1" parent="1" source="qcnHzoWF8FAFBK01wwpn-9" target="qcnHzoWF8FAFBK01wwpn-15">
          <mxGeometry relative="1" as="geometry">
            <mxPoint x="203.03999999999996" y="213" as="targetPoint" />
          </mxGeometry>
        </mxCell>
        <mxCell id="qcnHzoWF8FAFBK01wwpn-17" style="edgeStyle=orthogonalEdgeStyle;rounded=0;orthogonalLoop=1;jettySize=auto;html=1;entryX=0;entryY=0.5;entryDx=0;entryDy=0;" edge="1" parent="1" source="qcnHzoWF8FAFBK01wwpn-15" target="qcnHzoWF8FAFBK01wwpn-19">
          <mxGeometry relative="1" as="geometry">
            <mxPoint x="354" y="240" as="targetPoint" />
          </mxGeometry>
        </mxCell>
        <mxCell id="qcnHzoWF8FAFBK01wwpn-15" value="models dragged directly from hotbar to tabletop&amp;nbsp;" style="rounded=1;whiteSpace=wrap;html=1;arcSize=50;" vertex="1" parent="1">
          <mxGeometry x="150" y="210" width="120" height="60" as="geometry" />
        </mxCell>
        <mxCell id="qcnHzoWF8FAFBK01wwpn-25" style="edgeStyle=orthogonalEdgeStyle;rounded=0;orthogonalLoop=1;jettySize=auto;html=1;entryX=0.5;entryY=0;entryDx=0;entryDy=0;" edge="1" parent="1" source="qcnHzoWF8FAFBK01wwpn-19" target="qcnHzoWF8FAFBK01wwpn-24">
          <mxGeometry relative="1" as="geometry" />
        </mxCell>
        <mxCell id="qcnHzoWF8FAFBK01wwpn-27" style="edgeStyle=orthogonalEdgeStyle;rounded=0;orthogonalLoop=1;jettySize=auto;html=1;entryX=0;entryY=0.5;entryDx=0;entryDy=0;" edge="1" parent="1" source="qcnHzoWF8FAFBK01wwpn-19" target="qcnHzoWF8FAFBK01wwpn-26">
          <mxGeometry relative="1" as="geometry" />
        </mxCell>
        <mxCell id="qcnHzoWF8FAFBK01wwpn-19" value="model checked if it can be placed" style="rhombus;whiteSpace=wrap;html=1;" vertex="1" parent="1">
          <mxGeometry x="359" y="200" width="110" height="80" as="geometry" />
        </mxCell>
        <mxCell id="qcnHzoWF8FAFBK01wwpn-23" style="edgeStyle=orthogonalEdgeStyle;rounded=0;orthogonalLoop=1;jettySize=auto;html=1;entryX=0.5;entryY=0;entryDx=0;entryDy=0;" edge="1" parent="1" source="qcnHzoWF8FAFBK01wwpn-20" target="qcnHzoWF8FAFBK01wwpn-22">
          <mxGeometry relative="1" as="geometry" />
        </mxCell>
        <mxCell id="qcnHzoWF8FAFBK01wwpn-20" value="user inputs the model&#39;s data into the popup menu&amp;nbsp;" style="rounded=1;whiteSpace=wrap;html=1;arcSize=50;" vertex="1" parent="1">
          <mxGeometry x="-30" y="120" width="120" height="60" as="geometry" />
        </mxCell>
        <mxCell id="qcnHzoWF8FAFBK01wwpn-22" value="model is added to the SQL database&amp;nbsp;" style="rounded=0;whiteSpace=wrap;html=1;" vertex="1" parent="1">
          <mxGeometry x="-30" y="220" width="120" height="60" as="geometry" />
        </mxCell>
        <mxCell id="qcnHzoWF8FAFBK01wwpn-31" style="edgeStyle=orthogonalEdgeStyle;rounded=0;orthogonalLoop=1;jettySize=auto;html=1;entryX=1;entryY=0.5;entryDx=0;entryDy=0;" edge="1" parent="1" source="qcnHzoWF8FAFBK01wwpn-24" target="qcnHzoWF8FAFBK01wwpn-29">
          <mxGeometry relative="1" as="geometry" />
        </mxCell>
        <mxCell id="qcnHzoWF8FAFBK01wwpn-32" style="edgeStyle=orthogonalEdgeStyle;rounded=0;orthogonalLoop=1;jettySize=auto;html=1;entryX=0.5;entryY=0;entryDx=0;entryDy=0;" edge="1" parent="1" source="qcnHzoWF8FAFBK01wwpn-24" target="qcnHzoWF8FAFBK01wwpn-30">
          <mxGeometry relative="1" as="geometry" />
        </mxCell>
        <mxCell id="qcnHzoWF8FAFBK01wwpn-34" style="edgeStyle=orthogonalEdgeStyle;rounded=0;orthogonalLoop=1;jettySize=auto;html=1;" edge="1" parent="1" source="qcnHzoWF8FAFBK01wwpn-24" target="qcnHzoWF8FAFBK01wwpn-33">
          <mxGeometry relative="1" as="geometry" />
        </mxCell>
        <mxCell id="qcnHzoWF8FAFBK01wwpn-24" value="model placed" style="rounded=0;whiteSpace=wrap;html=1;" vertex="1" parent="1">
          <mxGeometry x="354" y="340" width="120" height="60" as="geometry" />
        </mxCell>
        <mxCell id="qcnHzoWF8FAFBK01wwpn-26" value="model returned to hotbar&amp;nbsp;" style="rounded=0;whiteSpace=wrap;html=1;" vertex="1" parent="1">
          <mxGeometry x="530" y="210" width="120" height="60" as="geometry" />
        </mxCell>
        <mxCell id="qcnHzoWF8FAFBK01wwpn-38" style="edgeStyle=orthogonalEdgeStyle;rounded=0;orthogonalLoop=1;jettySize=auto;html=1;entryX=0.5;entryY=0;entryDx=0;entryDy=0;" edge="1" parent="1" source="qcnHzoWF8FAFBK01wwpn-29" target="qcnHzoWF8FAFBK01wwpn-37">
          <mxGeometry relative="1" as="geometry" />
        </mxCell>
        <mxCell id="qcnHzoWF8FAFBK01wwpn-29" value="mouse hovering over model?" style="rounded=1;whiteSpace=wrap;html=1;arcSize=50;" vertex="1" parent="1">
          <mxGeometry x="150" y="340" width="120" height="60" as="geometry" />
        </mxCell>
        <mxCell id="qcnHzoWF8FAFBK01wwpn-40" style="edgeStyle=orthogonalEdgeStyle;rounded=0;orthogonalLoop=1;jettySize=auto;html=1;" edge="1" parent="1" source="qcnHzoWF8FAFBK01wwpn-30" target="qcnHzoWF8FAFBK01wwpn-39">
          <mxGeometry relative="1" as="geometry" />
        </mxCell>
        <mxCell id="qcnHzoWF8FAFBK01wwpn-30" value="clicked on?" style="rounded=1;whiteSpace=wrap;html=1;arcSize=50;" vertex="1" parent="1">
          <mxGeometry x="354" y="450" width="120" height="60" as="geometry" />
        </mxCell>
        <mxCell id="qcnHzoWF8FAFBK01wwpn-33" value="next to model of the same kind?" style="rhombus;whiteSpace=wrap;html=1;" vertex="1" parent="1">
          <mxGeometry x="540" y="330" width="100" height="80" as="geometry" />
        </mxCell>
        <mxCell id="qcnHzoWF8FAFBK01wwpn-35" value="added to unit / unit created&amp;nbsp;" style="rounded=0;whiteSpace=wrap;html=1;" vertex="1" parent="1">
          <mxGeometry x="520" y="460" width="120" height="60" as="geometry" />
        </mxCell>
        <mxCell id="qcnHzoWF8FAFBK01wwpn-36" style="edgeStyle=orthogonalEdgeStyle;rounded=0;orthogonalLoop=1;jettySize=auto;html=1;entryX=0.567;entryY=0.033;entryDx=0;entryDy=0;entryPerimeter=0;" edge="1" parent="1" source="qcnHzoWF8FAFBK01wwpn-33" target="qcnHzoWF8FAFBK01wwpn-35">
          <mxGeometry relative="1" as="geometry" />
        </mxCell>
        <mxCell id="qcnHzoWF8FAFBK01wwpn-37" value="small menu displayed" style="rounded=0;whiteSpace=wrap;html=1;" vertex="1" parent="1">
          <mxGeometry x="150" y="450" width="120" height="60" as="geometry" />
        </mxCell>
        <mxCell id="qcnHzoWF8FAFBK01wwpn-39" value="big menu displayed" style="rounded=0;whiteSpace=wrap;html=1;" vertex="1" parent="1">
          <mxGeometry x="354" y="555" width="120" height="60" as="geometry" />
        </mxCell>
      </root>
    </mxGraphModel>
  </diagram>
</mxfile>
